<svg width="240" height="110" viewBox="0 0 240 110" fill="none" xmlns="http://www.w3.org/2000/svg">
<path d="M26.8011 58.0508C27.2977 58.0508 27.7944 58.0422 28.291 58.0422C28.7425 58.0336 29.1308 57.7242 29.2121 57.2946C29.2933 56.8649 29.0405 56.4438 28.6161 56.2891C28.4265 56.2203 28.2007 56.143 27.9479 56.0571C24.083 54.7078 15.035 51.5625 17.5273 41.5508C18.1684 38.9641 19.5861 37.7524 22.566 37.2453C22.9321 37.1786 23.3039 37.1441 23.6767 37.1422C25.7897 37.1422 27.5144 38.3539 29.6365 41.3188C30.702 42.8055 32.6796 43.6649 35.0545 43.6649C38.6845 43.6649 42.7571 41.6453 43.5065 37.7953C44.536 32.5016 42.7571 29.3821 40.3461 27.0961C40.4905 27.1133 40.626 27.1305 40.7343 27.1477C40.7885 27.1563 40.8337 27.1563 40.8878 27.1563C41.231 27.1563 41.547 26.9844 41.7186 26.6922C41.9173 26.3656 41.8721 25.9532 41.6103 25.661C40.2648 24.1571 38.1337 23.0227 35.9936 22.318C36.3638 22.1977 36.707 22.0946 36.9688 22.0172C37.1548 21.9645 37.3194 21.8588 37.4405 21.7144C37.5615 21.57 37.6333 21.3939 37.646 21.2096C37.6588 21.0253 37.612 20.8416 37.512 20.6834C37.4119 20.5251 37.2633 20.3998 37.0862 20.3242C35.9214 19.8258 34.5398 19.5766 32.9776 19.5766C31.6321 19.5766 30.1963 19.7742 28.8328 20.1266L29.2211 19.5594C29.4288 19.2586 29.4288 18.8633 29.2121 18.5539C29.0315 18.3047 28.7335 18.15 28.4174 18.15C28.3542 18.15 28.3 18.1586 28.2368 18.1672C23.3335 19.0696 17.2654 20.4789 13.8249 23.3321C10.4477 25.936 -0.0631866 35.5782 7.53104 49.6032C11.5494 57.0282 19.1707 58.0508 26.8011 58.0508Z" fill="url(#paint0_linear)"/>
<path d="M28.4265 19.061C24.074 19.8688 17.8162 21.2352 14.4661 24.0196C8.12701 28.9008 2.3117 37.9672 8.38889 49.1907C12.1725 56.186 19.5319 57.1399 26.8101 57.1399C27.3067 57.1399 27.7944 57.1313 28.282 57.1313C25.2298 56.0141 13.7437 52.8344 16.6062 41.336C17.3557 38.311 19.1888 36.893 22.4034 36.3516C22.8459 36.2742 23.2703 36.2399 23.6767 36.2399C26.1509 36.2399 28.1555 37.6407 30.4311 40.8203C31.3702 42.1352 33.1491 42.7711 35.0635 42.7711C38.2962 42.7711 41.9263 40.9664 42.5765 37.6407C43.7955 31.4188 40.8698 28.4282 37.4113 25.9016C38.233 26.0219 40.0751 26.1422 40.8969 26.2625C39.0638 24.2086 35.3976 22.8336 32.5893 22.4555C33.5916 22.1633 35.6956 21.45 36.707 21.1578C35.6053 20.6938 34.323 20.4875 32.9866 20.4875C30.6659 20.4875 28.2188 21.0977 26.4399 21.9742C27.09 21.0031 27.7582 20.0321 28.4265 19.061ZM28.4265 17.2477C29.0495 17.2477 29.6455 17.5399 30.0067 18.0469C30.1873 18.3047 30.2957 18.5883 30.3228 18.8891C31.2167 18.743 32.1197 18.6656 32.9776 18.6656C34.6752 18.6656 36.1832 18.9407 37.4745 19.4907C38.1969 19.8 38.6484 20.5047 38.5942 21.261C38.5671 21.6133 38.4407 21.9399 38.233 22.2149C39.8313 22.9453 41.3032 23.8992 42.3417 25.068C42.8564 25.6438 42.9377 26.4688 42.5494 27.1305C42.432 27.3196 42.2875 27.4914 42.1159 27.6289C44.1657 30.0524 45.3577 33.2235 44.4366 37.95C43.5878 42.2899 39.0728 44.5586 35.0454 44.5586C32.3455 44.5586 30.0789 43.5617 28.8418 41.8172C26.4669 38.4914 24.9499 38.036 23.6676 38.036C23.3787 38.036 23.0626 38.0617 22.7285 38.1219C20.1189 38.5688 18.9991 39.5141 18.4483 41.7399C16.4256 49.8696 22.277 53.1008 28.2729 55.1891C28.5258 55.275 28.7606 55.361 28.9502 55.4297C29.799 55.7391 30.3047 56.5813 30.1421 57.4407C29.9796 58.3 29.2121 58.9274 28.291 58.936C27.7944 58.9446 27.2887 58.9446 26.783 58.9446C19.2249 58.9446 10.9263 57.8875 6.67319 50.0157C-1.22806 35.4149 9.64406 25.386 13.2199 22.6274C16.8319 19.6453 23.0355 18.2016 28.0472 17.2735C28.1826 17.2563 28.3 17.2477 28.4265 17.2477Z" fill="#D3914F"/>
<path d="M8.02763 48.5719C2.43806 37.7437 8.48816 28.5055 14.8092 23.7617C18.1503 21.0547 23.9927 19.9461 28.3361 19.1641L26.3495 21.9828C29.1488 20.6508 33.5735 19.9461 36.5895 21.1922C35.5872 21.4758 33.4922 22.1719 32.4899 22.4469C35.2892 22.8078 38.9464 24.1484 40.7794 26.1422C39.9577 26.0219 38.1246 25.9102 37.3029 25.7898C40.7523 28.2391 43.8587 31.1437 42.6487 37.1937C42.3958 38.457 41.8179 40.0984 40.5085 40.468C39.5423 40.743 38.1246 40.5453 37.5286 38.6117C36.3367 34.7359 36.8514 30.8859 29.8622 27.0188C22.873 23.1516 12.5155 27.1305 9.71624 36.9617C7.76576 43.8367 11.6667 53.3156 11.8383 53.4359C10.3032 52.3531 9.02996 50.5141 8.02763 48.5719Z" fill="#FFECB3"/>
<path d="M101.055 105.652C101.271 105.652 101.407 105.54 101.47 105.48C101.522 105.426 101.561 105.362 101.585 105.292C101.608 105.222 101.615 105.148 101.606 105.076C101.578 104.861 101.56 104.62 101.533 104.371C101.299 101.827 100.919 99.5242 98.8695 99.4211C97.822 99.3695 97.0635 99.3609 96.5217 99.3523C95.3297 99.3352 94.21 99.318 94.1558 98.0461C94.1107 97.0062 94.1107 96.9031 94.2732 96.3531C94.3274 96.1641 94.4086 95.8977 94.526 95.3906C95.2394 92.2539 96.3591 88.5242 97.5511 84.5797C99.1313 79.3203 100.766 73.889 101.479 69.6351C101.037 70.039 100.522 70.5547 100.089 70.9844C98.3999 72.6687 96.4855 74.5851 94.6886 75.2125C93.7946 75.5219 93.1896 75.8742 92.6026 76.2094C91.6635 76.7508 90.7786 77.2664 89.2254 77.2664C88.2863 77.2664 87.1666 77.0773 85.7037 76.6734C85.6947 76.6734 85.6225 76.6562 85.4599 76.6562C84.575 76.6562 83.4282 77.0859 83.1302 77.3781C84.3583 86.2125 86.7151 100.908 87.4104 105.213C87.4555 105.471 87.6813 105.652 87.9522 105.652H101.055Z" fill="url(#paint1_linear)"/>
<path d="M99.944 72.4367C98.3998 73.9578 96.7112 75.4703 95.0136 76.0633C94.2099 76.3468 93.641 76.6734 93.0992 76.9828C92.133 77.5414 91.0494 78.1687 89.2254 78.1687C88.205 78.1687 87.013 77.9711 85.496 77.5586H85.4598C85.0625 77.5586 84.5298 77.6961 84.1595 77.8422C85.3786 86.5304 87.5638 100.169 88.3043 104.741H100.621L100.594 104.44C100.314 101.449 99.8537 100.366 98.8242 100.315C97.7948 100.263 97.0544 100.255 96.5126 100.246C95.3928 100.229 93.2979 100.203 93.2076 98.0547C93.1624 96.9976 93.1534 96.7828 93.3611 96.0953C93.4153 95.9148 93.4875 95.6656 93.5959 95.1843C94.3183 92.0218 95.438 88.275 96.63 84.3133C97.849 80.2484 99.1132 76.0718 99.944 72.4367ZM102.183 68.0883C102.508 68.0883 102.626 68.5008 102.463 69.5234C101.253 77.0086 97.1447 88.1633 95.4651 95.5711C95.0858 97.2297 95.0587 96.525 95.1219 98.0031C95.149 98.6133 95.5102 98.3382 98.9326 98.5101C102.328 98.682 102.337 102.953 102.563 104.973V104.981C102.653 105.832 101.958 106.562 101.064 106.562H87.9521C87.2117 106.562 86.5796 106.055 86.4622 105.351C85.7669 101.045 83.392 86.2468 82.1639 77.3695C82.0465 76.4929 84.1957 75.7539 85.4508 75.7539C85.6495 75.7539 85.821 75.7711 85.9655 75.814C87.3923 76.2093 88.4217 76.364 89.2163 76.364C91.3655 76.364 91.9073 75.2211 94.3454 74.3617C97.1988 73.3734 101.019 68.0883 102.183 68.0883Z" fill="#D3914F"/>
<path d="M41.258 105.652C41.4747 105.652 41.6101 105.54 41.6733 105.48C41.7254 105.426 41.7644 105.362 41.7878 105.292C41.8112 105.222 41.8184 105.148 41.8088 105.076C41.8088 105.067 41.7636 104.612 41.7366 104.371C41.5018 101.819 41.1225 99.5242 39.0727 99.4211C38.0252 99.3695 37.2667 99.3609 36.7249 99.3524C35.5329 99.3352 34.4132 99.318 34.3591 98.0461C34.3139 97.0063 34.3139 96.9031 34.4764 96.3531C34.5306 96.1641 34.6119 95.8977 34.7293 95.3906C36.1741 89.0399 42.1881 75.1781 44.0844 70.8984H26.1779C26.1508 76.0289 26.0515 101.449 26.6655 105.23C26.7106 105.488 26.9364 105.669 27.2073 105.669H41.258V105.652Z" fill="url(#paint2_linear)"/>
<path d="M27.117 71.7922C27.0718 81.1508 27.0809 100.676 27.5504 104.749H40.8155L40.7884 104.448C40.5085 101.458 40.048 100.375 39.0185 100.323C37.9891 100.272 37.2487 100.263 36.7069 100.255C35.5871 100.238 33.4922 100.212 33.4019 98.0633C33.3567 97.0063 33.3477 96.7914 33.5554 96.1039C33.6096 95.9235 33.6818 95.6743 33.7902 95.193C35.1266 89.2977 40.3279 77.1032 42.6396 71.8008H27.117V71.7922ZM25.2207 69.9789H45.5111C45.5111 69.9789 37.3299 88.1633 35.6503 95.5711C35.2711 97.2297 35.244 96.525 35.3072 98.0032C35.3343 98.6133 35.6955 98.3383 39.1179 98.5102C42.5131 98.6821 42.5222 102.953 42.7479 104.973V104.981C42.8382 105.832 42.1429 106.563 41.2489 106.563H27.1892C26.4488 106.563 25.8167 106.056 25.6993 105.351C25.013 101.054 25.2207 69.9789 25.2207 69.9789Z" fill="#D3914F"/>
<path d="M21.4282 105.557C23.0536 105.557 23.5683 105.351 23.7128 105.179C24.0018 104.827 23.6496 103.434 23.5322 102.979C23.4961 102.867 23.3787 102.549 23.2613 102.266C23.162 102.016 23.0717 101.784 23.0446 101.681C22.4305 99.825 21.4282 99.6703 20.3627 99.6703C20.2001 99.6703 20.0376 99.6789 19.8841 99.6789C19.7306 99.6875 19.5861 99.6875 19.4416 99.6875C19.0804 99.6875 18.2316 99.6875 17.7711 99.043C17.2925 98.3813 17.5453 97.5133 17.8614 96.7485C18.3941 95.4336 31.1625 83.5829 34.323 80.936C36.418 79.1828 39.0186 78.2977 42.0708 78.2977C44.9604 78.2977 48.2654 79.0969 51.9135 80.6782C60.7358 84.511 68.619 87.6821 75.6714 87.6821C77.4503 87.6821 79.0938 87.4844 80.6921 87.0891C97.4337 82.9039 105.236 72.9524 105.236 55.7735C105.236 40.511 98.0658 31.4016 86.0469 31.4016C78.7326 31.4016 74.6962 31.4016 70.9487 37.3485C65.0341 45.0399 57.7378 48.2969 46.5226 48.2969H46.1433C44.5089 48.2883 42.5855 48.0305 40.3551 47.7383C37.5197 47.3688 34.314 46.9477 30.9639 46.9477C25.7265 46.9477 21.3921 48.0133 17.7079 50.1961C11.9016 53.6422 8.57853 65.0204 10.3213 75.5735C11.7932 84.5282 9.8969 96.6711 8.63271 103.108C8.51531 103.709 8.68689 104.328 9.09324 104.801C9.50861 105.273 10.1136 105.548 10.7638 105.548L21.4282 105.557Z" fill="url(#paint3_linear)"/>
<path d="M86.0468 32.3039C78.6242 32.3039 75.2379 32.3039 71.7614 37.8039C71.7343 37.8469 71.6982 37.8984 71.662 37.9414C65.5939 45.8304 58.0719 49.1906 46.5135 49.1906H46.1252C44.4276 49.182 42.4771 48.9242 40.2106 48.6234C37.4113 48.2539 34.2327 47.8414 30.9548 47.8414C25.9071 47.8414 21.7352 48.8554 18.1954 50.9523C13.3825 53.8054 9.36411 63.9718 11.2424 75.4187C12.7323 84.5109 10.827 96.7656 9.55375 103.262C9.46345 103.727 9.68017 104.053 9.80659 104.208C9.94204 104.362 10.24 104.629 10.7457 104.629L21.4101 104.646C22.1867 104.646 22.6202 104.594 22.8459 104.552C22.8278 104.328 22.7737 103.924 22.593 103.219C22.5479 103.082 22.4396 102.816 22.3493 102.566C22.2409 102.3 22.1506 102.059 22.1235 101.956C21.672 100.59 21.1212 100.581 20.3536 100.581H20.3446C20.1911 100.581 20.0376 100.59 19.9021 100.59C19.7396 100.598 19.577 100.598 19.4325 100.598C19.0081 100.598 17.7169 100.598 16.9674 99.5585C16.1456 98.4156 16.7145 97.0148 16.9583 96.4218C17.6536 94.7117 31.5057 82.0789 33.6819 80.257C35.9484 78.3578 38.7748 77.3953 42.0617 77.3953C45.0868 77.3953 48.5272 78.2203 52.2927 79.8617C61.0157 83.6515 68.7905 86.7882 75.6623 86.7882C77.36 86.7882 78.9222 86.5992 80.4482 86.2211C96.7113 82.1476 104.287 72.4711 104.287 55.7734C104.287 48.6234 102.662 42.6851 99.5828 38.6117C96.4223 34.4265 91.8712 32.3039 86.0468 32.3039ZM86.0468 30.4906C99.3932 30.4906 106.184 40.8804 106.184 55.7734C106.184 76.5101 94.7427 84.5195 80.9268 87.9742C79.2111 88.4039 77.4593 88.6015 75.6623 88.6015C68.4564 88.6015 60.5642 85.4476 51.5071 81.5117C48.3737 80.1539 45.1048 79.2086 42.0617 79.2086C39.443 79.2086 36.9959 79.9047 34.9461 81.6234C30.9729 84.9492 19.1255 96.1468 18.7463 97.0836C18.1232 98.6133 18.5747 98.7937 19.4416 98.7937C19.7125 98.7937 20.0195 98.7765 20.3536 98.7765C21.6088 98.7765 23.1619 99.0257 23.9475 101.423C24.0198 101.638 24.3991 102.566 24.4532 102.773C25.1937 105.669 24.8235 106.468 21.4192 106.468L10.7457 106.451C8.79522 106.451 7.32333 104.766 7.68453 102.944C8.8494 96.989 10.836 84.657 9.36411 75.7109C7.51296 64.4445 11.2333 52.9547 17.1931 49.4226C21.6359 46.7929 26.4308 46.0367 30.9548 46.0367C36.9508 46.0367 42.4952 47.3601 46.1433 47.3859H46.5135C58.5956 47.3859 65.0882 43.4156 70.1269 36.8758C74.1634 30.4906 78.5519 30.4906 86.0468 30.4906Z" fill="#D3914F"/>
<path d="M64.447 51.5195C64.447 59.7179 73.4048 72.6085 84.4575 72.6085C95.5102 72.6085 104.468 59.7179 104.468 51.5195C104.468 43.321 95.5102 39.7976 84.4575 39.7976C73.4048 39.7976 64.447 43.321 64.447 51.5195Z" fill="#FFECB3"/>
<path d="M84.3311 78.4007C78.4887 78.796 75.87 78.6499 75.87 78.6499L72.7095 86.1007C72.7095 86.1007 80.9809 85.8944 86.2906 83.4366C90.8236 81.3398 89.1531 78.0742 84.3311 78.4007Z" fill="#FFECB3"/>
<path d="M52.7713 75.1609C58.4331 76.5789 61.0337 76.9055 61.0337 76.9055C61.0337 76.9055 61.7651 81.8555 61.7019 82.9469C61.6929 83.1188 55.8415 80.3773 49.9539 78.0484C47.9763 77.2664 48.0937 73.9836 52.7713 75.1609Z" fill="#FFECB3"/>
<path d="M79.5813 76.9313C74.976 84.0383 72.9623 98.0547 75.1295 98.5704C76.0867 98.7938 74.4252 98.6563 77.8295 99.0516C79.7077 99.275 80.9177 102.549 81.1435 104.534V104.543C81.2338 105.377 80.5385 106.107 79.6445 106.107L66.4607 106.03C65.7202 106.03 65.0881 105.531 64.9708 104.835C64.2754 100.581 59.2367 76.7766 59.2367 76.7766" fill="url(#paint4_linear)"/>
<path d="M79.5813 76.9313C74.976 84.0383 72.9623 98.0547 75.1295 98.5704C76.0867 98.7938 74.4252 98.6563 77.8295 99.0516C79.7077 99.275 80.9177 102.549 81.1435 104.534V104.543C81.2338 105.377 80.5385 106.107 79.6445 106.107L66.4607 106.03C65.7202 106.03 65.0881 105.531 64.9708 104.835C64.2754 100.581 59.2367 76.7766 59.2367 76.7766" stroke="#D3914F" stroke-width="2.111" stroke-miterlimit="10" stroke-linecap="round" stroke-linejoin="round"/>
<path d="M105.272 4.87268C104.486 4.87268 103.511 5.26799 102.4 6.0844L96.5849 10.2867C96.5849 10.2867 96.5758 10.2953 96.5668 10.2953H96.5578C93.4605 9.39299 85.1439 9.07502 85.1439 9.07502C80.6469 9.09221 76.9266 9.58206 73.8564 10.4672H73.8473C73.8383 10.4672 73.8383 10.4672 73.8293 10.4586L68.014 6.25627C66.9033 5.43987 65.9371 5.04456 65.1424 5.04456C63.8331 5.04456 63.0204 6.12737 62.9211 8.15549L61.702 21.3555V21.3641C60.7629 23.9852 60.3114 26.9156 60.1488 30.018C59.9953 31.1867 59.9231 32.3813 59.9231 33.6016C59.9231 46.9906 74.0009 57.5953 85.198 57.5953C96.63 57.5953 110.473 46.9906 110.473 33.6016C110.473 32.4414 110.401 31.2985 110.265 30.1727C110.112 26.9414 109.66 23.8992 108.694 21.1836V21.175L107.484 7.98362C107.385 5.95549 106.581 4.87268 105.272 4.87268ZM105.272 3.15393V4.87268V3.15393C107.096 3.15393 109.109 4.39143 109.29 7.8719L110.482 20.8313C111.385 23.418 111.909 26.4344 112.08 30.0438C112.224 31.2276 112.297 32.4184 112.297 33.6102C112.297 40.3047 109.128 46.793 103.366 51.8805C98.1019 56.5383 91.3113 59.3141 85.2161 59.3141C72.9534 59.3141 58.1352 47.85 58.1352 33.6016C58.1352 32.3555 58.2164 31.1008 58.3699 29.8719C58.5596 26.4172 59.0743 23.5125 59.9502 21.0031L61.1421 8.04377C61.3227 4.5719 63.3364 3.32581 65.1605 3.32581C66.3886 3.32581 67.725 3.85862 69.1337 4.90706L74.2266 8.57659C77.351 7.76877 81.0172 7.35627 85.1439 7.34768H85.2251C86.0288 7.38206 92.6026 7.65706 96.1785 8.4219L101.308 4.71799C102.707 3.67815 104.044 3.15393 105.272 3.15393Z" fill="#D3914F"/>
<path d="M61.6658 21.364L62.8758 8.15545C63.0384 4.90701 65.0159 4.07342 67.9597 6.25623L73.775 10.4586H73.7931C76.8542 9.56482 80.5746 9.07498 85.0806 9.06639C85.0806 9.06639 93.3972 9.39295 96.4945 10.2867H96.5125L102.328 6.08435C105.272 3.90154 107.258 4.73514 107.412 7.98357L108.64 21.1836V21.1922C109.805 24.4492 110.229 28.1703 110.274 32.132C110.437 45.4867 99.2215 56.8476 85.216 56.9422V56.9593C71.1473 56.925 59.8688 45.7015 60.0223 32.3039C60.0765 28.3422 60.4919 24.6211 61.6658 21.364Z" fill="url(#paint5_linear)"/>
<path d="M63.4628 29.889C66.0273 29.3648 70.4339 29.8031 72.6644 36.6179C73.152 38.0961 74.678 39.8664 76.2131 39.9008C79.2562 39.9695 79.8703 36.4117 85.3063 36.4117C90.7424 36.4117 91.1307 39.9695 94.1828 39.9008C95.7179 39.8664 97.2982 38.0961 97.7768 36.6179C100.007 29.8031 104.414 29.3648 106.978 29.889C117.95 32.132 109.353 47.6437 105.046 52.0265C94.7517 62.5023 75.9603 62.8117 65.3591 52.0265C61.0427 47.6437 52.4913 32.132 63.4628 29.889Z" fill="url(#paint6_linear)"/>
<path d="M95.1309 33.1118C93.3954 33.1118 91.9885 31.565 91.9885 29.6571C91.9885 27.7491 93.3954 26.2024 95.1309 26.2024C96.8665 26.2024 98.2734 27.7491 98.2734 29.6571C98.2734 31.565 96.8665 33.1118 95.1309 33.1118Z" fill="black"/>
<path d="M75.3011 33.1118C73.5656 33.1118 72.1587 31.565 72.1587 29.6571C72.1587 27.7491 73.5656 26.2024 75.3011 26.2024C77.0366 26.2024 78.4435 27.7491 78.4435 29.6571C78.4435 31.565 77.0366 33.1118 75.3011 33.1118Z" fill="black"/>
<path d="M85.0716 44.8765C87.4103 44.8765 90.5347 43.1921 90.5347 41.1382V41.0351C90.5347 38.9812 88.4037 36.7898 86.0649 36.7898H84.3672C82.0285 36.7898 79.8974 38.9812 79.8974 41.0351V41.0867C79.8974 43.1406 82.7328 44.8765 85.0716 44.8765Z" fill="url(#paint7_linear)"/>
<path d="M71.8336 43.2867C71.8878 43.2007 71.9962 43.1406 72.2129 43.1492C72.8089 43.1664 73.152 43.639 73.4951 43.9828C73.8022 44.2921 74.0911 44.6273 74.3891 44.9453C75.2018 45.7875 76.1861 46.4406 77.3419 46.9476C79.8252 48.039 80.99 47.6695 80.99 47.6695C81.3783 47.5406 81.8027 47.5148 82.2001 47.3687C83.2114 46.9906 83.988 46.4921 85.1619 46.4835C85.9114 46.475 86.6518 46.6382 87.302 46.939C87.9793 47.257 88.6384 47.5664 89.4241 47.6695C89.4241 47.6695 90.5618 48.039 93.0451 46.9476C93.9932 46.5265 94.8691 46.0109 95.5915 45.3492C96.2778 44.7132 96.8196 43.9914 97.5601 43.3984C97.6775 43.3039 97.8039 43.2093 97.9484 43.1578C98.1561 43.089 98.4631 43.1148 98.5805 43.2867C98.7069 43.4585 98.5805 43.6734 98.4721 43.8539C97.1447 46.1656 93.8849 54.089 85.2161 54.089C76.5473 54.089 73.3326 46.2343 71.96 43.8539C71.8517 43.6648 71.7433 43.4328 71.8336 43.2867Z" fill="black"/>
<path d="M93.6501 52.9375C93.6501 50.4196 89.7672 47.7125 84.9813 47.7125C80.1954 47.7125 76.3125 50.411 76.3125 52.9375C76.3125 55.4555 80.1954 57.5008 84.9813 57.5008C89.7672 57.5008 93.6501 55.4641 93.6501 52.9375Z" fill="#FF8282"/>
<path d="M103.827 7.33049L99.7182 10.5102C99.1583 10.9485 99.2667 11.7906 99.9259 12.0742L104.206 13.9305C104.865 14.2141 105.606 13.7414 105.588 13.0539L105.416 8.01799C105.389 7.25314 104.459 6.84924 103.827 7.33049Z" fill="#FFF5B5"/>
<path d="M66.5962 7.33038L70.7048 10.5101C71.2647 10.9483 71.1563 11.7905 70.4972 12.0741L66.2169 13.9304C65.5578 14.214 64.8173 13.7413 64.8353 13.0538L65.016 8.02647C65.034 7.25304 65.9731 6.84913 66.5962 7.33038Z" fill="#FFF5B5"/>
<path d="M172.656 105.62C171.031 105.543 167.344 104.946 167.234 101.086C167.18 98.9552 167.641 97.3275 168.602 96.2452C169.844 94.8561 171.727 94.5578 173.086 94.5578C174.047 94.5578 174.742 94.7027 174.75 94.7112L175.937 94.9669L172.812 80.1298L185.531 83.462L183.953 101.793C183.797 103.634 182.398 105.1 180.703 105.185L172.656 105.62Z" fill="url(#paint8_linear)"/>
<path d="M173.859 81.2804L184.695 84.1182L183.18 101.716C183.055 103.14 181.977 104.273 180.664 104.341L172.648 104.776C170.922 104.691 168.094 104.086 168.016 101.069C167.969 99.1768 168.352 97.7536 169.164 96.8418C170.211 95.6657 171.875 95.4186 173.086 95.4186C173.961 95.4186 174.594 95.5549 174.594 95.5549L176.969 96.0748L176.43 93.5011L173.859 81.2804ZM171.773 78.9794L174.906 93.8676C174.906 93.8676 174.148 93.6971 173.086 93.6971C170.555 93.6971 166.289 94.6516 166.461 101.103C166.563 104.904 169.578 106.335 172.664 106.472L180.75 106.037C181.764 105.984 182.726 105.533 183.46 104.767C184.193 104.001 184.649 102.973 184.742 101.87L186.383 82.7973L171.773 78.9794Z" fill="#D68200"/>
<path d="M223.477 98.282C218.797 98.282 214.508 95.4783 213.312 94.626L213.352 90.6973L216.297 91.9416C217.945 92.6404 219.672 92.9898 221.437 92.9898C223.031 92.9898 224.07 92.6915 224.109 92.683C226.773 91.8223 228.469 90.5184 229.305 88.6861C230.602 85.8482 229.43 82.465 228.5 79.7549C227.875 77.9482 227.234 76.0734 227.789 75.5194C228.43 74.8717 229.055 74.5394 229.648 74.5394C230.961 74.5394 232.328 76.2438 233.203 78.9964C234.961 84.4847 234.391 92.2228 230.398 95.6913C228.414 97.4128 226.086 98.282 223.477 98.282Z" fill="url(#paint9_linear)"/>
<path d="M229.641 75.383C230.586 75.383 231.719 76.9426 232.461 79.2691C233.281 81.8343 233.555 85.0471 233.195 87.8594C232.914 90.0752 232.109 93.1091 229.906 95.018C228.062 96.6202 225.898 97.4298 223.469 97.4298C219.383 97.4298 215.578 95.1629 214.094 94.1658L214.117 91.9415L216.008 92.7426C217.742 93.4755 219.57 93.8505 221.437 93.8505C223.102 93.8505 224.195 93.5437 224.312 93.5096L224.336 93.5011L224.352 93.4926C227.219 92.5637 229.062 91.1149 230 89.0611C231.445 85.8908 230.211 82.32 229.227 79.4481C228.836 78.3232 228.258 76.6273 228.359 76.0904C228.695 75.758 229.18 75.383 229.641 75.383ZM229.641 73.6786C228.883 73.6786 228.078 74.0536 227.25 74.8802C224.586 77.5817 234.906 88.3026 223.906 91.8563C223.906 91.8563 222.945 92.1376 221.437 92.1376C220.133 92.1376 218.422 91.9245 216.578 91.149L212.586 89.4616L212.523 95.0777C212.523 95.0777 217.656 99.1342 223.477 99.1342C225.937 99.1342 228.516 98.4098 230.883 96.356C237.836 90.3223 234.734 73.6786 229.641 73.6786Z" fill="#D68200"/>
<path d="M202.547 106.054C200.719 106.054 198.164 105.909 197.078 104.674C195.555 102.935 194.375 101.094 193.133 99.1428C190.164 94.4897 187.094 89.6832 178.937 85.6011C168.5 80.3685 170.836 65.5059 171.391 62.6766L195.359 55.1686C196.258 55.8759 200.203 59.3444 213.625 74.403C224.227 86.2914 219.82 99.0916 217.109 102.168C214.172 105.5 213.711 105.671 207.297 105.875C206.781 105.892 206.234 105.918 205.664 105.952C204.648 106.003 203.586 106.054 202.547 106.054Z" fill="url(#paint10_linear)"/>
<path d="M195.195 56.106C196.492 57.2139 200.812 61.2533 213.07 74.991C222.711 85.8056 219.516 98.2139 216.555 101.572C213.773 104.725 213.516 104.819 207.281 105.023C206.758 105.04 206.211 105.066 205.633 105.1C204.617 105.151 203.57 105.202 202.555 105.202C199.945 105.202 198.297 104.827 197.656 104.086C196.172 102.39 195.016 100.574 193.789 98.657C190.898 94.1318 187.625 89.0099 179.273 84.8256C174.766 82.5672 172.203 78.1868 171.656 71.8208C171.344 68.1989 171.797 64.9008 172.07 63.3498L195.195 56.106ZM195.484 54.2396L170.734 61.9948C170.734 61.9948 166.375 80.2407 178.617 86.3766C189.984 92.0694 191.289 99.2962 196.523 105.262C197.695 106.6 200.07 106.906 202.555 106.906C204.203 106.906 205.898 106.779 207.328 106.727C213.773 106.514 214.508 106.352 217.68 102.756C221 98.9894 224.711 85.6096 214.187 73.8064C197.953 55.6032 195.484 54.2396 195.484 54.2396Z" fill="#D68200"/>
<path d="M183.945 65.1053C185.5 61.1766 171.867 62.1567 171.508 67.304C171.148 72.4514 171.648 77.3601 174.305 80.6582C178.602 85.9845 184.328 88.3281 184.328 88.3281C184.328 88.3281 181.93 70.2186 183.945 65.1053Z" fill="#FFECB3"/>
<path d="M155.18 37.7919C154.539 37.7919 153.945 37.6555 153.414 37.3913C146.672 34.0336 145.234 18.8216 145.219 18.6682C145.117 17.5689 145.422 16.4695 146.047 15.6599C146.617 14.9185 147.414 14.4668 148.281 14.3986C149.141 14.3305 150.031 14.2878 150.93 14.2878C154.484 14.2878 161.078 14.8673 165.289 18.7705C167.867 21.1567 167.125 24.8723 166.453 26.875C164.531 32.5934 159.156 37.7919 155.18 37.7919Z" fill="#FED133"/>
<path d="M150.938 13.6999V15.1486C156.406 15.1486 161.844 16.7082 164.789 19.4267C166.898 21.3783 166.461 24.3951 165.719 26.5853C163.93 31.9117 158.805 36.9397 155.18 36.9397C154.656 36.9397 154.164 36.8289 153.734 36.6159C148.477 33.9911 146.359 22.7078 145.992 18.583C145.914 17.7138 146.148 16.8445 146.641 16.2054C146.851 15.9307 147.109 15.7042 147.4 15.5389C147.691 15.3736 148.009 15.2728 148.336 15.2424C149.18 15.1742 150.055 15.1401 150.93 15.1401L150.938 13.4357V13.6999ZM150.922 13.4442C149.969 13.4442 149.055 13.4868 148.219 13.555C145.859 13.751 144.203 16.1116 144.438 18.7535C144.758 22.2816 146.773 35.0222 153.086 38.1669C153.742 38.4908 154.445 38.6442 155.18 38.6442C162.359 38.6442 172.234 24.0798 165.789 18.1228C161.898 14.5265 155.844 13.4442 150.922 13.4442Z" fill="#EB8F00"/>
<path d="M145.758 21.8385C145.672 21.1567 145.617 20.4068 145.961 19.8358C146.414 19.0859 147.352 18.9666 148.164 18.9921C150.375 19.0688 152.578 19.708 154.547 20.8499C155.531 21.4209 156.508 22.1709 156.953 23.3043C157.641 25.0428 156.891 27.02 156.148 28.7074C155.633 29.8834 155.109 31.0765 154.367 32.0992C153.75 32.9514 152.875 33.8121 151.914 34.136C150.945 34.4598 150.492 33.5735 149.945 32.7895C148.519 30.7162 147.408 28.4054 146.656 25.9462C146.243 24.6095 145.942 23.2346 145.758 21.8385Z" fill="#EB8F00"/>
<path d="M194.883 29.8919C190.336 29.8919 184.312 26.1337 181.992 21.8215C180.781 19.5631 180.664 17.4581 181.648 15.5492C184.367 10.2654 190.945 6.63501 196.195 4.99024C196.484 4.89649 196.789 4.85388 197.086 4.85388C198.633 4.85388 200 6.08107 200.43 7.82811C200.469 7.97298 203.977 22.7418 198.734 28.4602C197.836 29.4317 196.547 29.8919 194.883 29.8919Z" fill="#FED133"/>
<path d="M197.078 5.71456C198.266 5.71456 199.328 6.67756 199.664 8.04962C200.633 12.055 202.258 23.4321 198.172 27.8977C197.437 28.6988 196.328 29.1078 194.875 29.1078C190.562 29.1078 184.859 25.52 182.664 21.4209C181.602 19.4352 181.484 17.6115 182.328 15.9752C184.937 10.9131 191.312 7.41046 196.406 5.8083C196.633 5.74865 196.859 5.71456 197.078 5.71456ZM197.078 4.01013C196.711 4.01013 196.344 4.06126 195.977 4.18057C190.969 5.74865 183.953 9.35351 180.969 15.1486C177.312 22.256 187.758 30.8122 194.883 30.8122C196.641 30.8122 198.187 30.2924 199.281 29.1078C204.187 23.7559 202.016 11.0494 201.18 7.62352C200.656 5.46742 198.961 4.01013 197.078 4.01013Z" fill="#EB8F00"/>
<path d="M200.93 11.0153C200.797 10.3421 200.602 9.61768 200.102 9.21714C199.438 8.68876 198.523 8.93591 197.773 9.26827C195.727 10.1801 193.867 11.6204 192.383 13.4356C191.641 14.3389 190.969 15.4213 190.914 16.6484C190.82 18.5404 192.164 20.0999 193.398 21.4038C194.258 22.3157 195.133 23.2275 196.156 23.9008C197.008 24.4632 198.102 24.9405 199.109 24.8723C200.117 24.8041 200.266 23.807 200.523 22.8611C201.203 20.3897 201.508 17.7819 201.422 15.1912C201.359 13.7935 201.203 12.3874 200.93 11.0153Z" fill="#EB8F00"/>
<path d="M176.328 67.0825C166.281 67.0825 154.57 61.1341 151.813 44.4477C148.742 25.8439 160.461 14.7907 172.648 12.4045C174.375 12.0636 176.117 11.8932 177.844 11.8932C190.508 11.8932 200.156 20.7733 202.422 34.5195C205.352 52.2966 194.156 64.0998 181.586 66.5627C179.836 66.9121 178.07 67.0825 176.328 67.0825Z" fill="url(#paint11_linear)"/>
<path d="M177.844 12.7453C183.578 12.7453 188.813 14.6202 192.984 18.1739C197.508 22.0259 200.508 27.7358 201.648 34.6643C202.953 42.5898 201.484 49.8166 197.406 55.5605C193.664 60.8272 187.992 64.4321 181.445 65.7189C179.742 66.0513 178.023 66.2217 176.328 66.2217C166.602 66.2217 155.25 60.4608 152.586 44.2943C151.258 36.2409 152.719 28.9715 156.805 23.2702C160.523 18.0887 166.203 14.5264 172.789 13.2311C174.469 12.9158 176.172 12.7453 177.844 12.7453ZM177.844 11.0409C176.07 11.0409 174.289 11.2199 172.508 11.5607C158.969 14.2197 148.031 26.3296 151.039 44.6011C153.641 60.3585 164.625 67.9347 176.32 67.9347C178.109 67.9347 179.922 67.7557 181.719 67.4063C195.258 64.7474 206.141 52.2966 203.188 34.366C200.609 18.7108 189.57 11.0409 177.844 11.0409Z" fill="#EB8F00"/>
<path d="M154.203 64.7731L162.75 57.5378" stroke="#404040" stroke-width="2.466" stroke-miterlimit="10" stroke-linecap="round" stroke-linejoin="round"/>
<path d="M161.477 53.967L151.727 57.4525" stroke="#404040" stroke-width="2.466" stroke-miterlimit="10" stroke-linecap="round" stroke-linejoin="round"/>
<path d="M150.422 49.561L160.953 50.2854" stroke="#404040" stroke-width="2.466" stroke-miterlimit="10" stroke-linecap="round" stroke-linejoin="round"/>
<path d="M206.68 54.4698L196.359 50.9417" stroke="#404040" stroke-width="2.466" stroke-miterlimit="10" stroke-linecap="round" stroke-linejoin="round"/>
<path d="M196.414 47.1066L206.664 46.672" stroke="#404040" stroke-width="2.466" stroke-miterlimit="10" stroke-linecap="round" stroke-linejoin="round"/>
<path d="M205.359 38.7805L195.727 43.4592" stroke="#404040" stroke-width="2.466" stroke-miterlimit="10" stroke-linecap="round" stroke-linejoin="round"/>
<path d="M168.961 14.4327L170.75 25.2899" stroke="#EB8F00" stroke-width="4.315" stroke-miterlimit="10" stroke-linecap="round" stroke-linejoin="round"/>
<path d="M176.539 12.9414L178.328 23.7986" stroke="#EB8F00" stroke-width="4.315" stroke-miterlimit="10" stroke-linecap="round" stroke-linejoin="round"/>
<path d="M164.673 43.5292C166.987 43.075 168.482 40.3936 168.011 37.5401C167.541 34.6866 165.283 32.7416 162.969 33.1958C160.654 33.65 159.16 36.3314 159.63 39.1849C160.101 42.0384 162.359 43.9834 164.673 43.5292Z" fill="#404040"/>
<path d="M190.126 38.4654C192.44 38.0112 193.935 35.3298 193.464 32.4763C192.993 29.6229 190.736 27.6779 188.421 28.1321C186.107 28.5863 184.612 31.2677 185.083 34.1212C185.554 36.9746 187.811 38.9196 190.126 38.4654Z" fill="#404040"/>
<path d="M178.516 45.7345C179.125 49.2712 175.805 51.6829 172.922 52.271L173 52.7141C173.28 54.357 174.076 55.8424 175.25 56.9155C175.578 57.2138 175.922 57.4695 176.297 57.6911C177.594 58.4751 179.133 58.7819 180.703 58.4666C181.662 58.2744 182.569 57.8511 183.358 57.2274C184.148 56.6037 184.799 55.7954 185.266 54.8617C185.469 54.4612 185.641 54.0351 185.773 53.5919C186.102 52.484 186.187 51.2824 185.977 50.0552L185.898 49.6121C183.016 50.2086 179.125 49.2712 178.516 45.7345Z" fill="#404040"/>
<path d="M175.484 60.5886C174.93 57.3502 176.883 54.2311 179.852 53.626C182.82 53.0209 185.68 55.1515 186.234 58.3899" fill="#ED7770"/>
<g opacity="0.12">
<path opacity="0.12" d="M176.297 57.691C176.305 57.6995 176.313 57.6995 176.32 57.708C176.313 57.6995 176.305 57.691 176.297 57.691ZM180.703 58.4665C180.299 58.5508 179.888 58.5936 179.477 58.5943C179.883 58.5858 180.297 58.5432 180.703 58.4665Z" fill="#404040"/>
<path opacity="0.12" d="M174.367 55.9269C174.633 56.2849 174.937 56.6172 175.258 56.9155C174.93 56.6172 174.633 56.2849 174.367 55.9269Z" fill="#404040"/>
<path opacity="0.12" d="M179.07 48.8792C180.273 50.1149 182.094 50.8307 184.258 50.8307C184.539 50.8307 184.828 50.8137 185.102 50.7881C185.18 51.6233 185.094 52.4755 184.859 53.2681C184.75 53.643 184.602 54.0095 184.43 54.3589C184.258 54.6998 184.047 55.0321 183.82 55.3304C183.289 56.0218 182.626 56.5783 181.877 56.9611C181.128 57.3438 180.311 57.5435 179.484 57.5462C178.165 57.5443 176.887 57.0377 175.875 56.1144C175.594 55.8588 175.344 55.5776 175.109 55.2708C174.623 54.6197 174.266 53.865 174.062 53.055C176.219 52.3647 178.187 50.8904 179.07 48.8792ZM178.516 45.7345C179.125 49.2712 175.805 51.6829 172.922 52.271L173 52.7141C173.28 54.357 174.076 55.8424 175.25 56.9155C175.578 57.2138 175.922 57.4695 176.297 57.691C177.638 58.503 179.197 58.7745 180.703 58.458C182.211 58.1517 183.573 57.2806 184.555 55.9951C184.828 55.6372 185.062 55.2622 185.266 54.8532C185.469 54.4526 185.641 54.0265 185.773 53.5834C186.102 52.4755 186.187 51.2739 185.977 50.0467L185.898 49.6035C185.375 49.7143 184.82 49.7655 184.25 49.7655C181.711 49.7825 179.016 48.632 178.516 45.7345Z" fill="#404040"/>
</g>
<path d="M178.508 44.516C179.086 47.8993 177.047 51.1547 173.945 51.7854C172.531 52.0751 171.133 51.7683 169.984 51.0269" stroke="#404040" stroke-width="1.844" stroke-miterlimit="10" stroke-linecap="round" stroke-linejoin="round"/>
<path d="M178.484 44.5244C179.062 47.9077 182.047 50.132 185.148 49.5013C186.51 49.2246 187.732 48.4156 188.586 47.2259" stroke="#404040" stroke-width="1.844" stroke-miterlimit="10" stroke-linecap="round" stroke-linejoin="round"/>
<path d="M179.227 44.7714L181.281 41.0984C181.992 39.8201 180.992 38.2179 179.641 38.4821L174.484 39.4963C173.133 39.7604 172.703 41.6438 173.781 42.5727L176.883 45.2316C177.633 45.8793 178.734 45.6663 179.227 44.7714Z" fill="url(#paint12_linear)"/>
<path d="M184.469 73.5253L185.805 95.2823C185.805 95.2823 176.953 91.9843 177.18 100.941C177.273 104.691 180.953 105.969 184.039 106.088L192.117 105.637C194.211 105.517 195.742 101.913 196.117 101.512L197.672 73.2185" fill="url(#paint13_linear)"/>
<path d="M184.469 73.5253L185.805 95.2823C185.805 95.2823 176.953 91.9843 177.18 100.941C177.273 104.691 180.953 105.969 184.039 106.088L192.117 105.637C194.211 105.517 195.742 101.913 196.117 101.512L197.672 73.2185" stroke="#D68200" stroke-width="2" stroke-miterlimit="10"/>
<path d="M202.82 63.4521C202.578 62.5147 201.773 61.6284 201.094 60.9125C200.883 60.2563 200.086 59.762 199.406 60.3075C197.156 62.1312 195.273 64.4151 193.305 66.5798C193.023 66.8866 192.742 67.2019 192.562 67.5939C192.391 67.9859 192.336 68.4717 192.539 68.8466C192.758 69.2557 193.219 69.4517 193.648 69.4432C194.078 69.4347 194.492 69.2642 194.898 69.1023C196.859 68.2842 198.852 67.5428 200.734 66.5286C201.289 66.2303 201.852 65.9065 202.289 65.4293C202.891 64.7731 202.992 64.0998 202.82 63.4521Z" fill="#D68200"/>
<path d="M209.227 70.2612C209.203 70.0482 209.148 69.8181 209.07 69.5624C208.719 68.4034 206.836 65.6082 205.484 66.6479C203.977 67.7983 202.461 69.196 201.273 70.8067C200.742 71.531 199.125 73.9684 199.617 74.9399C200.312 76.3034 206.391 72.9287 207.492 72.477C208.727 71.9742 209.383 71.4629 209.227 70.2612Z" fill="#D68200"/>
<path d="M191.977 77.1557C189.875 76.2353 187.391 76.1671 185.18 76.4228C184.344 76.5165 184.125 77.3431 184.344 78.0164C184.32 78.0675 184.289 78.1016 184.266 78.1527C183.477 79.8998 184.914 81.5872 186.484 81.7661C188.227 81.9621 190.555 81.4849 192.086 80.5389C193.469 79.6867 193.516 77.8289 191.977 77.1557Z" fill="#D68200"/>
<path d="M191.203 86.4447C189.789 85.3965 187.617 85.5073 186.07 86.0357C185.789 86.1294 185.578 86.3084 185.437 86.53C185.211 86.6834 185.023 86.9135 184.937 87.1862C184.648 88.098 184.531 89.1633 184.852 90.007C184.859 90.6376 185.211 91.2597 185.898 91.2427C185.945 91.2427 185.984 91.2342 186.023 91.2342C186.047 91.2427 186.055 91.2597 186.078 91.2597C187.477 91.8137 189.523 90.9359 190.766 90.2371C192.164 89.4616 192.656 87.5271 191.203 86.4447Z" fill="#D68200"/>
<path d="M225.648 96.8844C225.294 96.369 225.047 95.7761 224.923 95.1465C224.799 94.5169 224.801 93.8654 224.93 93.2369C225.125 92.2995 223.992 91.7455 223.578 92.3762C223.258 92.3421 222.914 92.487 222.742 92.8875C222.187 94.2169 222.25 95.7424 222.875 97.0292C222.937 97.1486 223.008 97.2423 223.094 97.319C223.016 97.694 223.133 98.0945 223.578 98.2053C224.141 98.3502 224.641 98.3843 225.211 98.2735C225.828 98.1542 225.984 97.3786 225.648 96.8844Z" fill="#D68200"/>
<path d="M230.625 94.6175C229.445 93.8846 228.773 92.5722 228.883 91.0893C228.961 89.9985 227.406 89.8792 227.32 90.97V91.0467C227.062 91.1405 226.836 91.3706 226.797 91.7455C226.586 93.7653 227.617 95.6061 229.266 96.4838C229.687 96.7054 230.016 96.4753 230.164 96.1259C230.859 96.1003 231.352 95.0692 230.625 94.6175Z" fill="#D68200"/>
<path d="M233.164 89.01C232.016 88.6776 231.109 87.9617 230.453 86.888C229.898 85.9761 228.719 87.101 229.273 88.0044C229.18 88.2089 229.148 88.456 229.25 88.7202C229.852 90.3053 231.281 91.3791 232.844 91.4558C233.539 91.4899 233.797 90.6803 233.555 90.169C233.773 89.7429 233.719 89.1634 233.164 89.01Z" fill="#D68200"/>
<path d="M232.766 77.3347C232.773 77.1813 232.781 77.0279 232.766 76.866C232.672 75.9797 232.008 75.4001 231.227 75.4939C230.914 75.2808 230.555 75.1189 230.18 75.0593C230.096 75.0434 230.011 75.0492 229.93 75.0763C229.609 74.8888 229.188 74.8973 228.906 75.2979C228.773 75.4939 228.656 75.6984 228.563 75.92C228.313 75.9967 228.078 76.1927 228.008 76.4569C227.727 77.5477 227.781 78.5874 228.211 79.6271C228.32 79.8998 228.555 80.0447 228.797 80.0788C228.82 80.3004 228.914 80.5134 229.117 80.6328C230.961 81.7662 233.242 80.5561 233.313 78.1613C233.32 77.7097 233.07 77.4369 232.766 77.3347Z" fill="#D68200"/>
<path d="M218.531 85.192C218.273 83.4876 217.727 81.8513 216.5 80.7179C216.297 80.5304 216.047 80.4537 215.781 80.4367C215.484 79.9679 214.977 79.6952 214.297 79.9168C211.742 80.769 209.273 81.928 207.094 83.6325C205.719 84.7062 204.5 86.9816 206.516 88.2174C207.602 88.8821 209.258 88.6775 210.445 88.6605C211.953 88.6349 213.547 88.5923 215.039 88.3111C215.977 88.1321 216.945 87.706 217.609 87.0157C218.203 86.743 218.664 86.1039 218.531 85.192Z" fill="#D68200"/>
<path d="M220.406 92.7256C220.283 92.4392 220.114 92.1794 219.906 91.9586C220.766 91.0382 219.977 89.3167 218.211 89.632C216.547 89.9303 214.906 90.3479 213.352 90.9189C212.055 91.3961 210.102 92.0268 209.336 93.075C207.164 96.0322 212.602 96.714 214.852 96.6628C217.422 96.6032 221.594 95.6061 220.406 92.7256Z" fill="#D68200"/>
<path d="M179.453 89.5384C178.461 89.01 177.43 88.6265 176.352 88.3794C175.523 88.1919 174.664 88.4731 174.359 89.419C174.195 89.9304 174.305 90.6292 174.633 91.0979C174.516 91.3109 174.437 91.5496 174.422 91.8138C174.359 92.8194 175.039 93.467 175.875 93.629C176.078 93.6716 176.273 93.663 176.461 93.6204C177.57 93.5863 178.664 93.2881 179.625 92.6745C180.852 91.8904 180.672 90.186 179.453 89.5384Z" fill="#D68200"/>
<path d="M202.437 82.2263C199.641 83.2915 197.969 86.8112 197.906 89.5979C197.844 92.3846 199.141 95.1714 201.25 96.7565C199.461 96.7821 197.719 97.907 196.836 99.6114C195.953 101.316 195.992 103.532 196.906 105.202" stroke="#D68200" stroke-width="3" stroke-miterlimit="10" stroke-linejoin="round"/>
<defs>
<linearGradient id="paint0_linear" x1="24.3268" y1="18.9372" x2="24.3268" y2="58.5475" gradientUnits="userSpaceOnUse">
<stop stop-color="#FFC559"/>
<stop offset="0.999" stop-color="#D47500"/>
</linearGradient>
<linearGradient id="paint1_linear" x1="92.3697" y1="105.093" x2="92.3697" y2="77.7631" gradientUnits="userSpaceOnUse">
<stop offset="0.001" stop-color="#ED8300"/>
<stop offset="0.237" stop-color="#F59F25"/>
<stop offset="0.462" stop-color="#FAB442"/>
<stop offset="0.658" stop-color="#FEC053"/>
<stop offset="0.803" stop-color="#FFC559"/>
<stop offset="1" stop-color="#FFC559"/>
</linearGradient>
<linearGradient id="paint2_linear" x1="35.1094" y1="105.11" x2="35.1094" y2="78.7351" gradientUnits="userSpaceOnUse">
<stop offset="0.001" stop-color="#ED8300"/>
<stop offset="0.237" stop-color="#F59F25"/>
<stop offset="0.462" stop-color="#FAB442"/>
<stop offset="0.658" stop-color="#FEC053"/>
<stop offset="0.803" stop-color="#FFC559"/>
<stop offset="1" stop-color="#FFC559"/>
</linearGradient>
<linearGradient id="paint3_linear" x1="56.9134" y1="31.8442" x2="56.9134" y2="87.4758" gradientUnits="userSpaceOnUse">
<stop offset="0.263" stop-color="#FFC559"/>
<stop offset="0.465" stop-color="#FEC356"/>
<stop offset="0.611" stop-color="#FCBC4D"/>
<stop offset="0.739" stop-color="#F8AF3D"/>
<stop offset="0.857" stop-color="#F29E27"/>
<stop offset="0.967" stop-color="#EB880A"/>
<stop offset="1" stop-color="#E88000"/>
</linearGradient>
<linearGradient id="paint4_linear" x1="70.2063" y1="105.652" x2="70.2063" y2="83.4024" gradientUnits="userSpaceOnUse">
<stop offset="0.077" stop-color="#ED8300"/>
<stop offset="0.417" stop-color="#F3991E"/>
<stop offset="1" stop-color="#FFC559"/>
</linearGradient>
<linearGradient id="paint5_linear" x1="85.1519" y1="10.5084" x2="85.1519" y2="57.2653" gradientUnits="userSpaceOnUse">
<stop stop-color="#FFC559"/>
<stop offset="0.999" stop-color="#D47500"/>
</linearGradient>
<linearGradient id="paint6_linear" x1="85.2151" y1="36.7417" x2="85.2151" y2="57.3117" gradientUnits="userSpaceOnUse">
<stop offset="0.158" stop-color="#FFF8E1"/>
<stop offset="0.707" stop-color="#D8D3BF"/>
<stop offset="1" stop-color="#C9C4B2"/>
</linearGradient>
<linearGradient id="paint7_linear" x1="85.2152" y1="44.7236" x2="85.2152" y2="36.7142" gradientUnits="userSpaceOnUse">
<stop/>
<stop offset="0.355" stop-color="#262626"/>
<stop offset="0.837" stop-color="#575757"/>
</linearGradient>
<linearGradient id="paint8_linear" x1="174.235" y1="81.4176" x2="179.955" y2="106.002" gradientUnits="userSpaceOnUse">
<stop offset="0.286" stop-color="#FFC31A"/>
<stop offset="0.453" stop-color="#FEBC1B"/>
<stop offset="0.693" stop-color="#FCA91F"/>
<stop offset="0.978" stop-color="#F78A24"/>
<stop offset="1" stop-color="#F78725"/>
</linearGradient>
<linearGradient id="paint9_linear" x1="232.656" y1="76.2966" x2="212.042" y2="104.009" gradientUnits="userSpaceOnUse">
<stop stop-color="#FED133"/>
<stop offset="0.469" stop-color="#FBAD2C"/>
<stop offset="1" stop-color="#F78725"/>
</linearGradient>
<linearGradient id="paint10_linear" x1="178.894" y1="55.1089" x2="216.221" y2="102.405" gradientUnits="userSpaceOnUse">
<stop stop-color="#FED133"/>
<stop offset="0.297" stop-color="#FCBF30"/>
<stop offset="0.892" stop-color="#F89027"/>
<stop offset="1" stop-color="#F78725"/>
</linearGradient>
<linearGradient id="paint11_linear" x1="173.594" y1="18.0404" x2="181.911" y2="60.4215" gradientUnits="userSpaceOnUse">
<stop offset="0.509" stop-color="#FED133"/>
<stop offset="0.634" stop-color="#FDCE32"/>
<stop offset="0.741" stop-color="#FCC32E"/>
<stop offset="0.84" stop-color="#F9B128"/>
<stop offset="0.9" stop-color="#F6A323"/>
</linearGradient>
<linearGradient id="paint12_linear" x1="177.084" y1="39.0113" x2="178.368" y2="45.5565" gradientUnits="userSpaceOnUse">
<stop offset="0.163" stop-color="#75443E"/>
<stop offset="0.45" stop-color="#512926"/>
<stop offset="0.812" stop-color="#290B0A"/>
<stop offset="1" stop-color="#1A0000"/>
</linearGradient>
<linearGradient id="paint13_linear" x1="187.459" y1="75.515" x2="187.541" y2="105.246" gradientUnits="userSpaceOnUse">
<stop offset="0.139" stop-color="#FFB733" stop-opacity="0"/>
<stop offset="0.598" stop-color="#FFB733"/>
<stop offset="1" stop-color="#F78725"/>
</linearGradient>
</defs>
</svg>
